# Blender v2.79 (sub 0) OBJ File: ''
# www.blender.org
mtllib cubexz45.mtl
o Cube_Cube.001
v 0.292893 -1.707107 -0.000000
v -1.707107 0.292893 0.000000
v -0.707107 -0.707107 -1.414214
v -0.707107 -0.707107 1.414214
v -0.292893 1.707107 0.000000
v 0.707107 0.707107 1.414214
v 0.707107 0.707107 -1.414214
v 1.707107 -0.292893 -0.000000
vn -0.7071 -0.7071 -0.0000
vn -0.5000 0.5000 0.7071
vn 0.7071 0.7071 0.0000
vn 0.5000 -0.5000 -0.7071
vn -0.5000 0.5000 -0.7071
vn 0.5000 -0.5000 0.7071
usemtl None
s 1
f 1//1 2//1 3//1
f 4//2 5//2 2//2
f 6//3 7//3 5//3
f 8//4 3//4 7//4
f 5//5 3//5 2//5
f 4//6 8//6 6//6
f 1//1 4//1 2//1
f 4//2 6//2 5//2
f 6//3 8//3 7//3
f 8//4 1//4 3//4
f 5//5 7//5 3//5
f 4//6 1//6 8//6
