# Blender v2.79 (sub 0) OBJ File: ''
# www.blender.org
mtllib pyramid.mtl
o Plane_Plane.001
v 1.000000 -0.107687 1.000000
v -1.000000 -0.107687 -1.000000
v -1.000000 -0.107687 1.000000
v 1.000000 -0.107687 -1.000000
v 0.000000 1.892313 0.000000
vn 0.8944 -0.4472 -0.0000
vn 0.0000 1.0000 0.0000
vn -0.8944 -0.4472 -0.0000
vn 0.0000 -0.4472 0.8944
vn 0.0000 -0.4472 -0.8944
g Plane_Plane.001_Plane_Plane.001_Material.005
usemtl Material.005
s 1
f 3//1 2//1 5//1
g Plane_Plane.001_Plane_Plane.001_Material.002
usemtl Material.002
f 1//2 2//2 3//2
f 4//3 1//3 5//3
f 1//2 4//2 2//2
g Plane_Plane.001_Plane_Plane.001_Material.004
usemtl Material.004
f 2//4 4//4 5//4
g Plane_Plane.001_Plane_Plane.001_Material.003
usemtl Material.003
f 1//5 3//5 5//5
